<?xml version="1.0" encoding="UTF-8"?>
<svg xmlns="http://www.w3.org/2000/svg" xmlns:xlink="http://www.w3.org/1999/xlink" width="14pt" height="14pt" viewBox="0 0 14 14" version="1.1">
<g id="surface1">
<path style=" stroke:none;fill-rule:nonzero;fill:rgb(0%,0%,0%);fill-opacity:1;" d="M 5.726562 1.789062 L 6.398438 1.195312 C 6.679688 0.941406 7.132812 0.941406 7.414062 1.195312 L 13.257812 6.390625 C 13.539062 6.636719 13.539062 7.042969 13.257812 7.292969 L 7.414062 12.484375 C 7.132812 12.742188 6.671875 12.742188 6.398438 12.484375 L 5.726562 11.890625 C 5.441406 11.636719 5.449219 11.226562 5.738281 10.972656 L 9.363281 7.90625 L 0.71875 7.90625 C 0.320312 7.90625 0 7.621094 0 7.269531 L 0 6.410156 C 0 6.058594 0.320312 5.773438 0.71875 5.773438 L 9.363281 5.773438 L 5.738281 2.707031 C 5.445312 2.457031 5.4375 2.046875 5.726562 1.789062 Z M 5.726562 1.789062 "/>
</g>
</svg>
